<?xml version="1.0" encoding="UTF-8"?>
<svg xmlns="http://www.w3.org/2000/svg" xmlns:xlink="http://www.w3.org/1999/xlink" width="54px" height="44px" viewBox="0 0 54 44" version="1.1">
<g id="surface1">
<path style=" stroke:none;fill-rule:nonzero;fill:current;fill-opacity:1;" d="M 53.980469 18.734375 C 53.683594 13.527344 48.589844 9.625 42.902344 9.625 L 42.023438 9.625 C 37.074219 9.625 32.25 8.226562 28.171875 5.652344 C 24.238281 3.164062 19.171875 2.074219 13.808594 3.183594 C 12.121094 3.535156 -0.0078125 6.722656 0 19.25 C 0.00390625 25.347656 3.625 30.664062 9 33.515625 L 9 39.875 C 9 40.632812 9.671875 41.25 10.5 41.25 L 12 41.25 C 12.828125 41.25 13.5 40.632812 13.5 39.875 L 13.5 35.210938 C 14.9375 35.550781 16.441406 35.75 18 35.75 C 18.507812 35.75 19 35.6875 19.5 35.648438 L 19.5 39.875 C 19.5 40.632812 20.171875 41.25 21 41.25 L 22.5 41.25 C 23.328125 41.25 24 40.632812 24 39.875 L 24 34.769531 C 25.335938 34.332031 26.613281 33.789062 27.78125 33.089844 C 32.070312 30.53125 36.925781 28.875 42.042969 28.875 C 44.433594 28.875 43.542969 28.847656 44.203125 28.808594 L 51.179688 40.535156 C 51.449219 40.984375 51.957031 41.25 52.496094 41.25 C 52.621094 41.25 52.746094 41.234375 52.867188 41.207031 C 53.53125 41.050781 53.996094 40.503906 53.996094 39.875 C 53.996094 39.875 54.011719 19.230469 53.980469 18.734375 Z M 43.496094 21.3125 C 42.253906 21.3125 41.246094 20.390625 41.246094 19.25 C 41.246094 18.109375 42.253906 17.1875 43.496094 17.1875 C 44.738281 17.1875 45.746094 18.109375 45.746094 19.25 C 45.746094 20.390625 44.738281 21.3125 43.496094 21.3125 Z M 50.996094 34.484375 L 47.261719 28.203125 C 48.679688 27.699219 49.953125 26.949219 50.996094 25.96875 Z M 50.996094 34.484375 "/>
</g>
</svg>
